<?xml version="1.0" encoding="UTF-8"?>
<svg version="1.1" xmlns="http://www.w3.org/2000/svg" width="48" height="48">
<path d="M0 0 C4.70914666 2.66940328 8.58861559 6.08974408 10.76171875 11.11328125 C12.0469296 17.20679844 11.97804424 23.03165382 10.76171875 29.11328125 C9.77171875 29.44328125 8.78171875 29.77328125 7.76171875 30.11328125 C5.2608681 27.7355494 3.17488572 25.16061183 1.07421875 22.42578125 C0.45160156 21.61753906 -0.17101562 20.80929688 -0.8125 19.9765625 C-1.28300781 19.36167969 -1.75351562 18.74679688 -2.23828125 18.11328125 C-2.56828125 19.10328125 -2.89828125 20.09328125 -3.23828125 21.11328125 C-2.26135343 22.93946589 -2.26135343 22.93946589 -0.80078125 24.67578125 C1.76171875 27.92254556 1.76171875 27.92254556 1.76171875 30.11328125 C2.75171875 30.44328125 3.74171875 30.77328125 4.76171875 31.11328125 C4.76171875 31.77328125 4.76171875 32.43328125 4.76171875 33.11328125 C-15.22203995 36.6214019 -15.22203995 36.6214019 -20.23828125 34.11328125 C-20.23828125 33.45328125 -20.23828125 32.79328125 -20.23828125 32.11328125 C-19.57828125 32.11328125 -18.91828125 32.11328125 -18.23828125 32.11328125 C-18.23828125 31.45328125 -18.23828125 30.79328125 -18.23828125 30.11328125 C-17.66980469 30.13648437 -17.10132813 30.1596875 -16.515625 30.18359375 C-11.31269477 30.30519813 -7.16515882 29.79051617 -2.23828125 28.11328125 C-2.81578125 27.34242187 -3.39328125 26.5715625 -3.98828125 25.77734375 C-4.73078125 24.77445313 -5.47328125 23.7715625 -6.23828125 22.73828125 C-7.35203125 21.24167969 -7.35203125 21.24167969 -8.48828125 19.71484375 C-10.23828125 17.11328125 -10.23828125 17.11328125 -10.23828125 15.11328125 C-12.95996594 16.4741236 -13.60443665 18.53602011 -15.01953125 21.125 C-17.04815462 24.43451698 -19.62954183 27.25236368 -22.23828125 30.11328125 C-23.22828125 29.78328125 -24.21828125 29.45328125 -25.23828125 29.11328125 C-26.25277215 20.76429536 -26.58867749 14.63327402 -22.61328125 6.98828125 C-16.72185486 -0.14344543 -9.03182353 -3.57805225 0 0 Z " fill="#0A4B0E" transform="translate(31.23828125,6.88671875)"/>
</svg>
