<?xml version="1.0" encoding="UTF-8"?>
<svg version="1.1" xmlns="http://www.w3.org/2000/svg" width="32" height="32">
<path d="M0 0 C3.97844465 2.84174618 6.19578268 6.30883491 7 11.125 C7 14.75634215 6.68357587 16.830916 5 20 C2.35247996 17.42215154 0.05567935 15.08351902 -2 12 C-2 15.20395416 -1.25664978 17.09399739 0 20 C0.66 20 1.32 20 2 20 C2 20.66 2 21.32 2 22 C-0.45779976 22.22126178 -2.91527648 22.42750395 -5.375 22.625 C-6.42300781 22.72167969 -6.42300781 22.72167969 -7.4921875 22.8203125 C-9.32369111 22.96119739 -11.16312748 22.98761659 -13 23 C-13.66 22.34 -14.32 21.68 -15 21 C-13.43694509 19.43694509 -11.72321782 19.69360032 -9.5625 19.5 C-6.15502495 19.20853056 -6.15502495 19.20853056 -3 18 C-3.78633922 16.85050412 -4.57926258 15.70551011 -5.375 14.5625 C-5.81585938 13.92441406 -6.25671875 13.28632813 -6.7109375 12.62890625 C-7.92160853 10.86259072 -7.92160853 10.86259072 -10 10 C-10.226875 10.721875 -10.45375 11.44375 -10.6875 12.1875 C-12.24831013 15.53209313 -14.3031287 17.51603959 -17 20 C-19.1730832 15.29165306 -19.10326795 12.00113894 -17.8359375 7.12109375 C-16.57263258 3.91560509 -14.68378258 2.09465958 -12 0 C-7.77671995 -1.40776002 -4.26624785 -1.28641545 0 0 Z " fill="#0B4B0F" transform="translate(22,5)"/>
<path d="M0 0 C0.99 0.33 1.98 0.66 3 1 C4.1875 3.5625 4.1875 3.5625 5 6 C5.66 6 6.32 6 7 6 C7 6.66 7 7.32 7 8 C4.54220024 8.22126178 2.08472352 8.42750395 -0.375 8.625 C-1.42300781 8.72167969 -1.42300781 8.72167969 -2.4921875 8.8203125 C-4.32369111 8.96119739 -6.16312748 8.98761659 -8 9 C-8.66 8.34 -9.32 7.68 -10 7 C-8.43694509 5.43694509 -6.72321782 5.69360032 -4.5625 5.5 C-1.15502495 5.20853056 -1.15502495 5.20853056 2 4 C1.34 2.68 0.68 1.36 0 0 Z " fill="#064509" transform="translate(17,19)"/>
</svg>
