<?xml version="1.0" encoding="UTF-8"?>
<svg version="1.1" xmlns="http://www.w3.org/2000/svg" width="16" height="16">
<path d="M0 0 C3.125 0.25 3.125 0.25 4.9375 1.4375 C6.4512715 3.74799334 6.91862145 5.498286 7.125 8.25 C5.125 11.25 5.125 11.25 4.125 12.25 C2.60571962 12.32179964 1.08332518 12.33392007 -0.4375 12.3125 C-1.26378906 12.30347656 -2.09007812 12.29445313 -2.94140625 12.28515625 C-3.57949219 12.27355469 -4.21757813 12.26195312 -4.875 12.25 C-6.0625 9.5625 -6.0625 9.5625 -6.875 6.25 C-4.12575529 0.35876133 -4.12575529 0.35876133 0 0 Z M-1.875 6.25 C-2.535 7.57 -3.195 8.89 -3.875 10.25 C-2.225 10.25 -0.575 10.25 1.125 10.25 C0.465 8.93 -0.195 7.61 -0.875 6.25 C-1.205 6.25 -1.535 6.25 -1.875 6.25 Z M2.125 7.25 C3.125 9.25 3.125 9.25 3.125 9.25 Z " fill="#0B490E" transform="translate(7.875,1.75)"/>
<path d="M0 0 C1.5 1.375 1.5 1.375 3 3 C3 3.66 3 4.32 3 5 C0.03 5 -2.94 5 -6 5 C-4.73775586 2.47551173 -3.49988984 2.17182336 -1 1 C-0.67 0.67 -0.34 0.34 0 0 Z " fill="#054208" transform="translate(9,9)"/>
</svg>
